<svg width="16" height="16" viewBox="0 0 16 16" fill="none" xmlns="http://www.w3.org/2000/svg">
<g clip-path="url(#clip0_5_2614)">
<path d="M8.38759 1.72341C8.13769 1.47344 7.79873 1.33296 7.44526 1.33289H2.66562C2.31213 1.33289 1.97311 1.47331 1.72315 1.72327C1.47319 1.97323 1.33276 2.31225 1.33276 2.66575V7.44538C1.33284 7.79885 1.47331 8.13781 1.72329 8.38771L7.5239 14.1883C7.8268 14.4893 8.23648 14.6582 8.66349 14.6582C9.09051 14.6582 9.50019 14.4893 9.80309 14.1883L14.1882 9.80321C14.4892 9.50031 14.6581 9.09063 14.6581 8.66362C14.6581 8.2366 14.4892 7.82692 14.1882 7.52402L8.38759 1.72341Z" stroke="#717182" stroke-width="1.33286" stroke-linecap="round" stroke-linejoin="round"/>
<path d="M4.99825 5.33141C5.18228 5.33141 5.33147 5.18222 5.33147 4.99819C5.33147 4.81416 5.18228 4.66498 4.99825 4.66498C4.81422 4.66498 4.66504 4.81416 4.66504 4.99819C4.66504 5.18222 4.81422 5.33141 4.99825 5.33141Z" fill="#717182" stroke="#717182" stroke-width="1.33286" stroke-linecap="round" stroke-linejoin="round"/>
</g>
<defs>
<clipPath id="clip0_5_2614">
<rect width="15.9943" height="15.9943" fill="white"/>
</clipPath>
</defs>
</svg>
