<svg width="16" height="16" viewBox="0 0 16 16" fill="none" xmlns="http://www.w3.org/2000/svg">
<path d="M4.66499 1.99927H2.6657C2.29764 1.99927 1.99927 2.29764 1.99927 2.6657V4.66499C1.99927 5.03305 2.29764 5.33142 2.6657 5.33142H4.66499C5.03305 5.33142 5.33142 5.03305 5.33142 4.66499V2.6657C5.33142 2.29764 5.03305 1.99927 4.66499 1.99927Z" stroke="#717182" stroke-width="1.33286" stroke-linecap="round" stroke-linejoin="round"/>
<path d="M13.3286 1.99927H11.3293C10.9612 1.99927 10.6628 2.29764 10.6628 2.6657V4.66499C10.6628 5.03305 10.9612 5.33142 11.3293 5.33142H13.3286C13.6966 5.33142 13.995 5.03305 13.995 4.66499V2.6657C13.995 2.29764 13.6966 1.99927 13.3286 1.99927Z" stroke="#717182" stroke-width="1.33286" stroke-linecap="round" stroke-linejoin="round"/>
<path d="M4.66499 10.6629H2.6657C2.29764 10.6629 1.99927 10.9613 1.99927 11.3293V13.3286C1.99927 13.6967 2.29764 13.9951 2.6657 13.9951H4.66499C5.03305 13.9951 5.33142 13.6967 5.33142 13.3286V11.3293C5.33142 10.9613 5.03305 10.6629 4.66499 10.6629Z" stroke="#717182" stroke-width="1.33286" stroke-linecap="round" stroke-linejoin="round"/>
<path d="M13.995 10.6629H11.9957C11.6422 10.6629 11.3032 10.8033 11.0532 11.0533C10.8033 11.3032 10.6628 11.6423 10.6628 11.9958V13.9951" stroke="#717182" stroke-width="1.33286" stroke-linecap="round" stroke-linejoin="round"/>
<path d="M13.9951 13.9951V14.0017" stroke="#717182" stroke-width="1.33286" stroke-linecap="round" stroke-linejoin="round"/>
<path d="M7.99719 4.66498V6.66427C7.99719 7.01776 7.85676 7.35678 7.6068 7.60674C7.35684 7.8567 7.01783 7.99713 6.66433 7.99713H4.66504" stroke="#717182" stroke-width="1.33286" stroke-linecap="round" stroke-linejoin="round"/>
<path d="M1.99927 7.99713H2.00593" stroke="#717182" stroke-width="1.33286" stroke-linecap="round" stroke-linejoin="round"/>
<path d="M7.99707 1.99927H8.00373" stroke="#717182" stroke-width="1.33286" stroke-linecap="round" stroke-linejoin="round"/>
<path d="M7.99707 10.6629V10.6696" stroke="#717182" stroke-width="1.33286" stroke-linecap="round" stroke-linejoin="round"/>
<path d="M10.6628 7.99713H11.3293" stroke="#717182" stroke-width="1.33286" stroke-linecap="round" stroke-linejoin="round"/>
<path d="M13.9951 7.99713V8.0038" stroke="#717182" stroke-width="1.33286" stroke-linecap="round" stroke-linejoin="round"/>
<path d="M7.99707 13.995V13.3286" stroke="#717182" stroke-width="1.33286" stroke-linecap="round" stroke-linejoin="round"/>
</svg>
