<svg width="16" height="16" viewBox="0 0 16 16" fill="none" xmlns="http://www.w3.org/2000/svg">
<path d="M13.3286 5.33148H2.6657C2.29764 5.33148 1.99927 5.62985 1.99927 5.99791V7.33077C1.99927 7.69883 2.29764 7.9972 2.6657 7.9972H13.3286C13.6966 7.9972 13.995 7.69883 13.995 7.33077V5.99791C13.995 5.62985 13.6966 5.33148 13.3286 5.33148Z" stroke="#717182" stroke-width="1.33286" stroke-linecap="round" stroke-linejoin="round"/>
<path d="M7.99707 5.33148V13.9951" stroke="#717182" stroke-width="1.33286" stroke-linecap="round" stroke-linejoin="round"/>
<path d="M12.6621 7.99713V12.6621C12.6621 13.0156 12.5216 13.3547 12.2717 13.6046C12.0217 13.8546 11.6827 13.995 11.3292 13.995H4.66489C4.31139 13.995 3.97238 13.8546 3.72242 13.6046C3.47246 13.3547 3.33203 13.0156 3.33203 12.6621V7.99713" stroke="#717182" stroke-width="1.33286" stroke-linecap="round" stroke-linejoin="round"/>
<path d="M4.99811 5.33146C4.55624 5.33146 4.13246 5.15593 3.82001 4.84348C3.50756 4.53103 3.33203 4.10726 3.33203 3.66539C3.33203 3.22352 3.50756 2.79975 3.82001 2.4873C4.13246 2.17485 4.55624 1.99931 4.99811 1.99931C5.641 1.98811 6.271 2.30005 6.80595 2.89444C7.34091 3.48883 7.75598 4.33809 7.99704 5.33146C8.2381 4.33809 8.65318 3.48883 9.18813 2.89444C9.72308 2.30005 10.3531 1.98811 10.996 1.99931C11.4378 1.99931 11.8616 2.17485 12.1741 2.4873C12.4865 2.79975 12.6621 3.22352 12.6621 3.66539C12.6621 4.10726 12.4865 4.53103 12.1741 4.84348C11.8616 5.15593 11.4378 5.33146 10.996 5.33146" stroke="#717182" stroke-width="1.33286" stroke-linecap="round" stroke-linejoin="round"/>
</svg>
