<svg width="16" height="16" viewBox="0 0 16 16" fill="none" xmlns="http://www.w3.org/2000/svg">
<g clip-path="url(#clip0_5_2589)">
<path d="M9.68724 14.4522C9.71256 14.5153 9.75658 14.5691 9.81338 14.6065C9.87018 14.6438 9.93706 14.6629 10.005 14.6612C10.073 14.6595 10.1388 14.637 10.1936 14.5967C10.2484 14.5565 10.2896 14.5005 10.3117 14.4362L14.6435 1.77402C14.6648 1.71497 14.6689 1.65106 14.6552 1.58979C14.6416 1.52851 14.6107 1.47239 14.5663 1.42799C14.5219 1.3836 14.4658 1.35276 14.4045 1.3391C14.3433 1.32544 14.2793 1.32951 14.2203 1.35083L1.55813 5.68263C1.49382 5.70468 1.43779 5.74589 1.39757 5.8007C1.35735 5.85552 1.33486 5.92133 1.33312 5.98929C1.33138 6.05726 1.35047 6.12413 1.38783 6.18094C1.42519 6.23774 1.47904 6.28176 1.54214 6.30707L6.82693 8.42632C6.99399 8.49321 7.14578 8.59324 7.27315 8.72037C7.40051 8.8475 7.50081 8.99911 7.568 9.16606L9.68724 14.4522Z" stroke="#717182" stroke-width="1.33286" stroke-linecap="round" stroke-linejoin="round"/>
<path d="M14.5642 1.43085L7.27344 8.72092" stroke="#717182" stroke-width="1.33286" stroke-linecap="round" stroke-linejoin="round"/>
</g>
<defs>
<clipPath id="clip0_5_2589">
<rect width="15.9943" height="15.9943" fill="white"/>
</clipPath>
</defs>
</svg>
