<svg width="16" height="16" viewBox="0 0 16 16" fill="none" xmlns="http://www.w3.org/2000/svg">
<g clip-path="url(#clip0_5_2565)">
<path d="M12.6621 4.66499V2.6657C12.6621 2.48895 12.5919 2.31944 12.467 2.19446C12.342 2.06948 12.1725 1.99927 11.9957 1.99927H3.33213C2.97863 1.99927 2.63961 2.13969 2.38965 2.38965C2.13969 2.63961 1.99927 2.97863 1.99927 3.33213C1.99927 3.68562 2.13969 4.02464 2.38965 4.2746C2.63961 4.52456 2.97863 4.66499 3.33213 4.66499H13.3286C13.5053 4.66499 13.6748 4.7352 13.7998 4.86018C13.9248 4.98516 13.995 5.15467 13.995 5.33142V7.99714M13.995 7.99714H11.9957C11.6422 7.99714 11.3032 8.13756 11.0532 8.38752C10.8033 8.63748 10.6629 8.9765 10.6629 9.33C10.6629 9.68349 10.8033 10.0225 11.0532 10.2725C11.3032 10.5224 11.6422 10.6629 11.9957 10.6629H13.995C14.1718 10.6629 14.3413 10.5926 14.4662 10.4677C14.5912 10.3427 14.6614 10.1732 14.6614 9.99643V8.66357C14.6614 8.48682 14.5912 8.31731 14.4662 8.19233C14.3413 8.06735 14.1718 7.99714 13.995 7.99714Z" stroke="#717182" stroke-width="1.33286" stroke-linecap="round" stroke-linejoin="round"/>
<path d="M1.99927 3.33209V12.6621C1.99927 13.0156 2.13969 13.3546 2.38965 13.6046C2.63961 13.8545 2.97863 13.995 3.33213 13.995H13.3286C13.5053 13.995 13.6748 13.9248 13.7998 13.7998C13.9248 13.6748 13.995 13.5053 13.995 13.3285V10.6628" stroke="#717182" stroke-width="1.33286" stroke-linecap="round" stroke-linejoin="round"/>
</g>
<defs>
<clipPath id="clip0_5_2565">
<rect width="15.9943" height="15.9943" fill="white"/>
</clipPath>
</defs>
</svg>
